<svg xmlns="http://www.w3.org/2000/svg" xmlns:xlink="http://www.w3.org/1999/xlink" width="500" zoomAndPan="magnify" viewBox="0 0 375 374.999991" height="500" preserveAspectRatio="xMidYMid meet" version="1.0"><defs><g/><clipPath id="id1"><path d="M 243 131 L 296.746094 131 L 296.746094 193 L 243 193 Z M 243 131 " clip-rule="nonzero"/></clipPath></defs><path fill="#211d1d" d="M 130.335938 185.722656 C 116.894531 177.9375 89.625 162.140625 89.429688 162.027344 C 101.140625 155.242188 128.414062 139.449219 130.335938 138.332031 C 134.199219 136.097656 130.710938 130.089844 126.839844 132.332031 C 113.398438 140.117188 99.957031 147.902344 86.515625 155.6875 C 84.59375 156.800781 82.671875 157.914062 80.75 159.027344 C 78.5 160.328125 78.5 163.726562 80.75 165.03125 C 94.191406 172.816406 124.917969 190.613281 126.839844 191.726562 C 130.707031 193.96875 134.203125 187.960938 130.335938 185.722656 " fill-opacity="1" fill-rule="nonzero"/><g clip-path="url(#id1)"><path fill="#211d1d" d="M 294.507812 159.027344 C 281.066406 151.242188 250.339844 133.445312 248.417969 132.332031 C 244.550781 130.089844 241.054688 136.09375 244.921875 138.332031 C 258.359375 146.117188 285.632812 161.914062 285.828125 162.027344 C 274.117188 168.8125 246.84375 184.609375 244.921875 185.722656 C 241.058594 187.960938 244.542969 193.96875 248.417969 191.726562 C 261.859375 183.941406 292.585938 166.144531 294.507812 165.03125 C 296.757812 163.726562 296.757812 160.328125 294.507812 159.027344 " fill-opacity="1" fill-rule="nonzero"/></g><path fill="#62b0c6" d="M 195.847656 153.351562 L 188.390625 153.351562 L 188.390625 145.863281 L 195.847656 145.863281 Z M 195.847656 162.371094 L 188.390625 162.371094 L 188.390625 154.882812 L 195.847656 154.882812 Z M 179.402344 162.371094 L 179.402344 154.882812 L 186.867188 154.882812 L 186.867188 162.371094 Z M 179.402344 145.863281 L 186.867188 145.863281 L 186.867188 153.351562 L 179.402344 153.351562 Z M 236.292969 154.769531 C 232.1875 151.445312 228.078125 148.125 223.96875 144.800781 L 223.96875 134.515625 C 223.96875 133.832031 223.449219 133.273438 222.800781 133.273438 L 217.214844 133.273438 C 216.5625 133.273438 216.039062 133.832031 216.039062 134.515625 L 216.039062 138.386719 C 212.582031 135.589844 209.121094 132.792969 205.652344 129.996094 C 200.132812 125.535156 194.605469 121.058594 189.074219 116.597656 C 188.652344 116.160156 188.140625 115.992188 187.628906 116.011719 C 187.117188 115.992188 186.605469 116.160156 186.183594 116.597656 C 175.964844 124.847656 165.75 133.101562 155.542969 141.367188 C 150.011719 145.828125 144.480469 150.292969 138.964844 154.769531 C 137.507812 155.933594 138.761719 158.273438 140.410156 158.273438 L 151.273438 158.273438 L 151.273438 190.164062 C 151.273438 191.285156 152.21875 192.21875 153.335938 192.21875 L 221.921875 192.21875 C 223.035156 192.21875 223.96875 191.285156 223.96875 190.164062 L 223.96875 158.273438 L 234.847656 158.273438 C 236.5 158.273438 237.75 155.933594 236.292969 154.769531 " fill-opacity="1" fill-rule="nonzero"/><g fill="#211d1d" fill-opacity="1"><g transform="translate(92.886711, 238.941064)"><g><path d="M 13.140625 -4.484375 C 13.898438 -4.484375 14.632812 -4.59375 15.34375 -4.8125 C 16.050781 -5.039062 16.570312 -5.265625 16.90625 -5.484375 L 17.40625 -5.828125 L 19.515625 -1.609375 C 19.453125 -1.554688 19.359375 -1.484375 19.234375 -1.390625 C 19.109375 -1.304688 18.820312 -1.144531 18.375 -0.90625 C 17.925781 -0.664062 17.445312 -0.457031 16.9375 -0.28125 C 16.425781 -0.113281 15.757812 0.0351562 14.9375 0.171875 C 14.113281 0.316406 13.257812 0.390625 12.375 0.390625 C 10.363281 0.390625 8.453125 -0.101562 6.640625 -1.09375 C 4.828125 -2.082031 3.367188 -3.445312 2.265625 -5.1875 C 1.160156 -6.925781 0.609375 -8.804688 0.609375 -10.828125 C 0.609375 -12.359375 0.929688 -13.820312 1.578125 -15.21875 C 2.234375 -16.625 3.097656 -17.828125 4.171875 -18.828125 C 5.253906 -19.835938 6.515625 -20.640625 7.953125 -21.234375 C 9.390625 -21.828125 10.863281 -22.125 12.375 -22.125 C 13.78125 -22.125 15.078125 -21.957031 16.265625 -21.625 C 17.453125 -21.289062 18.289062 -20.957031 18.78125 -20.625 L 19.515625 -20.125 L 17.40625 -15.90625 C 17.289062 -16.007812 17.109375 -16.132812 16.859375 -16.28125 C 16.609375 -16.4375 16.113281 -16.632812 15.375 -16.875 C 14.644531 -17.125 13.898438 -17.25 13.140625 -17.25 C 11.953125 -17.25 10.882812 -17.054688 9.9375 -16.671875 C 8.988281 -16.285156 8.234375 -15.773438 7.671875 -15.140625 C 7.117188 -14.515625 6.695312 -13.835938 6.40625 -13.109375 C 6.125 -12.378906 5.984375 -11.632812 5.984375 -10.875 C 5.984375 -9.226562 6.597656 -7.75 7.828125 -6.4375 C 9.066406 -5.132812 10.835938 -4.484375 13.140625 -4.484375 Z M 13.140625 -4.484375 "/></g></g></g><g fill="#211d1d" fill-opacity="1"><g transform="translate(114.700118, 238.941064)"><g><path d="M 0.609375 -10.875 C 0.609375 -14.019531 1.675781 -16.679688 3.8125 -18.859375 C 5.957031 -21.035156 8.539062 -22.125 11.5625 -22.125 C 14.601562 -22.125 17.1875 -21.039062 19.3125 -18.875 C 21.4375 -16.707031 22.5 -14.039062 22.5 -10.875 C 22.5 -7.695312 21.453125 -5.023438 19.359375 -2.859375 C 17.273438 -0.691406 14.675781 0.390625 11.5625 0.390625 C 8.382812 0.390625 5.765625 -0.679688 3.703125 -2.828125 C 1.640625 -4.984375 0.609375 -7.664062 0.609375 -10.875 Z M 5.953125 -10.875 C 5.953125 -9.738281 6.125 -8.695312 6.46875 -7.75 C 6.820312 -6.8125 7.4375 -6.019531 8.3125 -5.375 C 9.195312 -4.726562 10.28125 -4.40625 11.5625 -4.40625 C 13.40625 -4.40625 14.796875 -5.035156 15.734375 -6.296875 C 16.679688 -7.554688 17.15625 -9.082031 17.15625 -10.875 C 17.15625 -12.65625 16.675781 -14.179688 15.71875 -15.453125 C 14.757812 -16.722656 13.375 -17.359375 11.5625 -17.359375 C 9.769531 -17.359375 8.382812 -16.722656 7.40625 -15.453125 C 6.4375 -14.179688 5.953125 -12.65625 5.953125 -10.875 Z M 5.953125 -10.875 "/></g></g></g><g fill="#211d1d" fill-opacity="1"><g transform="translate(139.78015, 238.941064)"><g><path d="M 1.578125 -21.734375 L 7.875 -21.734375 C 10.894531 -21.734375 13.472656 -20.703125 15.609375 -18.640625 C 17.753906 -16.578125 18.828125 -13.988281 18.828125 -10.875 C 18.828125 -7.75 17.757812 -5.15625 15.625 -3.09375 C 13.5 -1.03125 10.914062 0 7.875 0 L 1.578125 0 Z M 6.53125 -4.421875 L 7.296875 -4.421875 C 9.109375 -4.421875 10.585938 -5.03125 11.734375 -6.25 C 12.890625 -7.476562 13.472656 -9.015625 13.484375 -10.859375 C 13.484375 -12.703125 12.90625 -14.238281 11.75 -15.46875 C 10.601562 -16.695312 9.117188 -17.3125 7.296875 -17.3125 L 6.53125 -17.3125 Z M 6.53125 -4.421875 "/></g></g></g><g fill="#211d1d" fill-opacity="1"><g transform="translate(161.19839, 238.941064)"><g><path d="M 14.015625 -21.734375 L 14.015625 -17.390625 L 6.53125 -17.390625 L 6.53125 -13.0625 L 13.703125 -13.0625 L 13.703125 -8.71875 L 6.53125 -8.71875 L 6.53125 -4.34375 L 14.015625 -4.34375 L 14.015625 0 L 1.578125 0 L 1.578125 -21.734375 Z M 14.015625 -21.734375 "/></g></g></g><g fill="#62b0c6" fill-opacity="1"><g transform="translate(178.445303, 238.941064)"><g><path d="M 6.53125 -8.71875 L 6.53125 0 L 1.578125 0 L 1.578125 -21.734375 L 6.53125 -21.734375 L 6.53125 -13.0625 L 13.546875 -13.0625 L 13.546875 -21.734375 L 18.5 -21.734375 L 18.5 0 L 13.546875 0 L 13.546875 -8.71875 Z M 6.53125 -8.71875 "/></g></g></g><g fill="#62b0c6" fill-opacity="1"><g transform="translate(200.495797, 238.941064)"><g><path d="M 0.609375 -10.875 C 0.609375 -14.019531 1.675781 -16.679688 3.8125 -18.859375 C 5.957031 -21.035156 8.539062 -22.125 11.5625 -22.125 C 14.601562 -22.125 17.1875 -21.039062 19.3125 -18.875 C 21.4375 -16.707031 22.5 -14.039062 22.5 -10.875 C 22.5 -7.695312 21.453125 -5.023438 19.359375 -2.859375 C 17.273438 -0.691406 14.675781 0.390625 11.5625 0.390625 C 8.382812 0.390625 5.765625 -0.679688 3.703125 -2.828125 C 1.640625 -4.984375 0.609375 -7.664062 0.609375 -10.875 Z M 5.953125 -10.875 C 5.953125 -9.738281 6.125 -8.695312 6.46875 -7.75 C 6.820312 -6.8125 7.4375 -6.019531 8.3125 -5.375 C 9.195312 -4.726562 10.28125 -4.40625 11.5625 -4.40625 C 13.40625 -4.40625 14.796875 -5.035156 15.734375 -6.296875 C 16.679688 -7.554688 17.15625 -9.082031 17.15625 -10.875 C 17.15625 -12.65625 16.675781 -14.179688 15.71875 -15.453125 C 14.757812 -16.722656 13.375 -17.359375 11.5625 -17.359375 C 9.769531 -17.359375 8.382812 -16.722656 7.40625 -15.453125 C 6.4375 -14.179688 5.953125 -12.65625 5.953125 -10.875 Z M 5.953125 -10.875 "/></g></g></g><g fill="#62b0c6" fill-opacity="1"><g transform="translate(225.575829, 238.941064)"><g><path d="M 18.28125 -21.734375 L 18.28125 -7.71875 C 18.28125 -5.050781 17.5625 -3.03125 16.125 -1.65625 C 14.6875 -0.289062 12.578125 0.390625 9.796875 0.390625 C 7.023438 0.390625 4.914062 -0.289062 3.46875 -1.65625 C 2.03125 -3.03125 1.3125 -5.050781 1.3125 -7.71875 L 1.3125 -21.734375 L 6.265625 -21.734375 L 6.265625 -9.171875 C 6.265625 -7.410156 6.539062 -6.1875 7.09375 -5.5 C 7.644531 -4.820312 8.546875 -4.484375 9.796875 -4.484375 C 11.046875 -4.484375 11.945312 -4.820312 12.5 -5.5 C 13.050781 -6.1875 13.328125 -7.410156 13.328125 -9.171875 L 13.328125 -21.734375 Z M 18.28125 -21.734375 "/></g></g></g><g fill="#62b0c6" fill-opacity="1"><g transform="translate(247.152135, 238.941064)"><g><path d="M 9.59375 -22.125 C 10.769531 -22.125 11.914062 -21.953125 13.03125 -21.609375 C 14.15625 -21.265625 14.992188 -20.925781 15.546875 -20.59375 L 16.328125 -20.078125 L 14.328125 -16.125 C 14.171875 -16.226562 13.953125 -16.363281 13.671875 -16.53125 C 13.390625 -16.695312 12.863281 -16.921875 12.09375 -17.203125 C 11.320312 -17.484375 10.601562 -17.625 9.9375 -17.625 C 9.101562 -17.625 8.460938 -17.445312 8.015625 -17.09375 C 7.566406 -16.738281 7.34375 -16.265625 7.34375 -15.671875 C 7.34375 -15.378906 7.445312 -15.101562 7.65625 -14.84375 C 7.875 -14.59375 8.238281 -14.320312 8.75 -14.03125 C 9.257812 -13.738281 9.707031 -13.503906 10.09375 -13.328125 C 10.476562 -13.148438 11.070312 -12.890625 11.875 -12.546875 C 13.28125 -11.941406 14.476562 -11.125 15.46875 -10.09375 C 16.46875 -9.070312 16.96875 -7.910156 16.96875 -6.609375 C 16.96875 -5.359375 16.742188 -4.269531 16.296875 -3.34375 C 15.847656 -2.414062 15.234375 -1.6875 14.453125 -1.15625 C 13.671875 -0.632812 12.804688 -0.25 11.859375 0 C 10.910156 0.257812 9.878906 0.390625 8.765625 0.390625 C 7.816406 0.390625 6.882812 0.289062 5.96875 0.09375 C 5.0625 -0.09375 4.300781 -0.328125 3.6875 -0.609375 C 3.070312 -0.898438 2.519531 -1.1875 2.03125 -1.46875 C 1.539062 -1.75 1.179688 -1.988281 0.953125 -2.1875 L 0.609375 -2.46875 L 3.078125 -6.640625 C 3.285156 -6.460938 3.570312 -6.238281 3.9375 -5.96875 C 4.3125 -5.695312 4.96875 -5.332031 5.90625 -4.875 C 6.851562 -4.414062 7.6875 -4.1875 8.40625 -4.1875 C 10.488281 -4.1875 11.53125 -4.898438 11.53125 -6.328125 C 11.53125 -6.617188 11.457031 -6.890625 11.3125 -7.140625 C 11.164062 -7.398438 10.898438 -7.65625 10.515625 -7.90625 C 10.140625 -8.164062 9.804688 -8.367188 9.515625 -8.515625 C 9.234375 -8.671875 8.757812 -8.898438 8.09375 -9.203125 C 7.4375 -9.515625 6.953125 -9.75 6.640625 -9.90625 C 5.316406 -10.550781 4.296875 -11.359375 3.578125 -12.328125 C 2.859375 -13.304688 2.5 -14.359375 2.5 -15.484375 C 2.5 -17.441406 3.21875 -19.035156 4.65625 -20.265625 C 6.101562 -21.503906 7.75 -22.125 9.59375 -22.125 Z M 9.59375 -22.125 "/></g></g></g><g fill="#62b0c6" fill-opacity="1"><g transform="translate(266.831703, 238.941064)"><g><path d="M 14.015625 -21.734375 L 14.015625 -17.390625 L 6.53125 -17.390625 L 6.53125 -13.0625 L 13.703125 -13.0625 L 13.703125 -8.71875 L 6.53125 -8.71875 L 6.53125 -4.34375 L 14.015625 -4.34375 L 14.015625 0 L 1.578125 0 L 1.578125 -21.734375 Z M 14.015625 -21.734375 "/></g></g></g><g fill="#737373" fill-opacity="1"><g transform="translate(144.329146, 254.872426)"><g><path d="M 4.359375 0 L 3.140625 0 L 2.921875 -1.390625 L 1.4375 -1.390625 L 1.234375 0 L 0.125 0 L 1.359375 -7.703125 L 3.125 -7.703125 Z M 1.59375 -2.4375 L 2.765625 -2.4375 L 2.171875 -6.34375 Z M 1.59375 -2.4375 "/></g></g></g><g fill="#737373" fill-opacity="1"><g transform="translate(153.203025, 254.872426)"><g><path d="M 2.21875 -7.703125 C 2.832031 -7.703125 3.285156 -7.539062 3.578125 -7.21875 C 3.878906 -6.894531 4.03125 -6.421875 4.03125 -5.796875 L 4.03125 -4.796875 C 4.03125 -4.171875 3.878906 -3.695312 3.578125 -3.375 C 3.285156 -3.050781 2.832031 -2.890625 2.21875 -2.890625 L 1.65625 -2.890625 L 1.65625 0 L 0.4375 0 L 0.4375 -7.703125 Z M 1.65625 -6.59375 L 1.65625 -4 L 2.21875 -4 C 2.414062 -4 2.5625 -4.046875 2.65625 -4.140625 C 2.757812 -4.242188 2.8125 -4.4375 2.8125 -4.71875 L 2.8125 -5.875 C 2.8125 -6.15625 2.757812 -6.34375 2.65625 -6.4375 C 2.5625 -6.539062 2.414062 -6.59375 2.21875 -6.59375 Z M 1.65625 -6.59375 "/></g></g></g><g fill="#737373" fill-opacity="1"><g transform="translate(161.74713, 254.872426)"><g><path d="M 2.21875 -7.703125 C 2.832031 -7.703125 3.285156 -7.539062 3.578125 -7.21875 C 3.878906 -6.894531 4.03125 -6.421875 4.03125 -5.796875 L 4.03125 -4.796875 C 4.03125 -4.171875 3.878906 -3.695312 3.578125 -3.375 C 3.285156 -3.050781 2.832031 -2.890625 2.21875 -2.890625 L 1.65625 -2.890625 L 1.65625 0 L 0.4375 0 L 0.4375 -7.703125 Z M 1.65625 -6.59375 L 1.65625 -4 L 2.21875 -4 C 2.414062 -4 2.5625 -4.046875 2.65625 -4.140625 C 2.757812 -4.242188 2.8125 -4.4375 2.8125 -4.71875 L 2.8125 -5.875 C 2.8125 -6.15625 2.757812 -6.34375 2.65625 -6.4375 C 2.5625 -6.539062 2.414062 -6.59375 2.21875 -6.59375 Z M 1.65625 -6.59375 "/></g></g></g><g fill="#737373" fill-opacity="1"><g transform="translate(170.291234, 254.872426)"><g><path d="M 0.4375 -7.703125 L 1.65625 -7.703125 L 1.65625 -1.09375 L 3.640625 -1.09375 L 3.640625 0 L 0.4375 0 Z M 0.4375 -7.703125 "/></g></g></g><g fill="#737373" fill-opacity="1"><g transform="translate(178.417643, 254.872426)"><g><path d="M 0.4375 -7.703125 L 1.65625 -7.703125 L 1.65625 0 L 0.4375 0 Z M 0.4375 -7.703125 "/></g></g></g><g fill="#737373" fill-opacity="1"><g transform="translate(184.906208, 254.872426)"><g><path d="M 3.953125 -2.875 L 3.953125 -1.84375 C 3.953125 -1.21875 3.796875 -0.738281 3.484375 -0.40625 C 3.179688 -0.0703125 2.734375 0.09375 2.140625 0.09375 C 1.546875 0.09375 1.097656 -0.0703125 0.796875 -0.40625 C 0.492188 -0.738281 0.34375 -1.21875 0.34375 -1.84375 L 0.34375 -5.859375 C 0.34375 -6.472656 0.492188 -6.945312 0.796875 -7.28125 C 1.097656 -7.613281 1.546875 -7.78125 2.140625 -7.78125 C 2.734375 -7.78125 3.179688 -7.613281 3.484375 -7.28125 C 3.796875 -6.945312 3.953125 -6.472656 3.953125 -5.859375 L 3.953125 -5.109375 L 2.8125 -5.109375 L 2.8125 -5.921875 C 2.8125 -6.203125 2.753906 -6.398438 2.640625 -6.515625 C 2.523438 -6.628906 2.367188 -6.6875 2.171875 -6.6875 C 1.984375 -6.6875 1.832031 -6.628906 1.71875 -6.515625 C 1.601562 -6.398438 1.546875 -6.203125 1.546875 -5.921875 L 1.546875 -1.765625 C 1.546875 -1.492188 1.601562 -1.300781 1.71875 -1.1875 C 1.832031 -1.070312 1.984375 -1.015625 2.171875 -1.015625 C 2.367188 -1.015625 2.523438 -1.070312 2.640625 -1.1875 C 2.753906 -1.300781 2.8125 -1.492188 2.8125 -1.765625 L 2.8125 -2.875 Z M 3.953125 -2.875 "/></g></g></g><g fill="#737373" fill-opacity="1"><g transform="translate(193.549249, 254.872426)"><g><path d="M 4.359375 0 L 3.140625 0 L 2.921875 -1.390625 L 1.4375 -1.390625 L 1.234375 0 L 0.125 0 L 1.359375 -7.703125 L 3.125 -7.703125 Z M 1.59375 -2.4375 L 2.765625 -2.4375 L 2.171875 -6.34375 Z M 1.59375 -2.4375 "/></g></g></g><g fill="#737373" fill-opacity="1"><g transform="translate(202.423129, 254.872426)"><g><path d="M 0.09375 -7.703125 L 3.828125 -7.703125 L 3.828125 -6.59375 L 2.5625 -6.59375 L 2.5625 0 L 1.359375 0 L 1.359375 -6.59375 L 0.09375 -6.59375 Z M 0.09375 -7.703125 "/></g></g></g><g fill="#737373" fill-opacity="1"><g transform="translate(210.736409, 254.872426)"><g><path d="M 0.4375 -7.703125 L 1.65625 -7.703125 L 1.65625 0 L 0.4375 0 Z M 0.4375 -7.703125 "/></g></g></g><g fill="#737373" fill-opacity="1"><g transform="translate(217.224974, 254.872426)"><g><path d="M 1.546875 -1.765625 C 1.546875 -1.492188 1.601562 -1.300781 1.71875 -1.1875 C 1.832031 -1.070312 1.984375 -1.015625 2.171875 -1.015625 C 2.367188 -1.015625 2.523438 -1.070312 2.640625 -1.1875 C 2.753906 -1.300781 2.8125 -1.492188 2.8125 -1.765625 L 2.8125 -5.921875 C 2.8125 -6.203125 2.753906 -6.398438 2.640625 -6.515625 C 2.523438 -6.628906 2.367188 -6.6875 2.171875 -6.6875 C 1.984375 -6.6875 1.832031 -6.628906 1.71875 -6.515625 C 1.601562 -6.398438 1.546875 -6.203125 1.546875 -5.921875 Z M 0.34375 -5.859375 C 0.34375 -6.472656 0.5 -6.945312 0.8125 -7.28125 C 1.125 -7.613281 1.578125 -7.78125 2.171875 -7.78125 C 2.765625 -7.78125 3.21875 -7.613281 3.53125 -7.28125 C 3.851562 -6.945312 4.015625 -6.472656 4.015625 -5.859375 L 4.015625 -1.84375 C 4.015625 -1.21875 3.851562 -0.738281 3.53125 -0.40625 C 3.21875 -0.0703125 2.765625 0.09375 2.171875 0.09375 C 1.578125 0.09375 1.125 -0.0703125 0.8125 -0.40625 C 0.5 -0.738281 0.34375 -1.21875 0.34375 -1.84375 Z M 0.34375 -5.859375 "/></g></g></g><g fill="#737373" fill-opacity="1"><g transform="translate(225.977935, 254.872426)"><g><path d="M 1.515625 -5.578125 L 1.515625 0 L 0.421875 0 L 0.421875 -7.703125 L 1.953125 -7.703125 L 3.1875 -3.09375 L 3.1875 -7.703125 L 4.265625 -7.703125 L 4.265625 0 L 3.03125 0 Z M 1.515625 -5.578125 "/></g></g></g></svg>