<svg xmlns="http://www.w3.org/2000/svg" xmlns:xlink="http://www.w3.org/1999/xlink" width="500" zoomAndPan="magnify" viewBox="0 0 375 374.999991" height="500" preserveAspectRatio="xMidYMid meet" version="1.0"><defs><g/></defs><g fill="#f4f4f4" fill-opacity="1"><g transform="translate(146.212451, 236.416346)"><g><path d="M 6.691406 0 L 23.546875 0 L 23.546875 -1.738281 C 17.660156 -3.34375 14.449219 -7.089844 14.449219 -22.34375 L 14.449219 -81.746094 L 48.699219 -25.421875 L 51.242188 -25.421875 L 85.226562 -82.816406 L 85.226562 -16.992188 C 85.226562 -6.019531 83.886719 -2.945312 79.871094 -1.738281 L 79.871094 0 L 101.546875 0 L 101.546875 -1.738281 C 97.398438 -2.945312 96.195312 -6.019531 96.195312 -16.992188 L 96.195312 -71.308594 C 96.195312 -86.5625 99.003906 -90.308594 104.355469 -91.914062 L 104.355469 -93.652344 L 89.238281 -93.652344 L 54.988281 -35.988281 L 20.070312 -93.652344 L 3.878906 -93.652344 L 3.878906 -91.914062 C 9.230469 -90.308594 12.042969 -86.5625 12.042969 -71.308594 L 12.042969 -16.992188 C 12.042969 -6.019531 10.835938 -2.945312 6.691406 -1.738281 Z M 6.691406 0 "/></g></g></g><g fill="#f4f4f4" fill-opacity="1"><g transform="translate(90.383563, 207.440199)"><g><path d="M 52.03125 -84.824219 L 65.292969 -52.613281 L 49.699219 -14.429688 L 22.734375 -84.675781 C 18.507812 -95.898438 17.488281 -98.816406 22.007812 -100.125 L 22.007812 -102.019531 L -0.582031 -102.019531 L -0.582031 -100.125 C 2.625 -98.816406 5.976562 -95.898438 10.203125 -84.675781 L 42.410156 0 L 46.492188 0 L 66.605469 -49.40625 L 86.863281 0 L 90.945312 0 L 121.40625 -84.675781 C 125.484375 -95.753906 128.984375 -98.816406 133.066406 -100.125 L 133.066406 -102.019531 L 116.597656 -102.019531 L 116.597656 -100.125 C 121.550781 -99.105469 122.425781 -94.152344 118.925781 -84.675781 L 93.566406 -14.71875 L 73.894531 -62.378906 L 82.054688 -84.675781 C 86.136719 -95.753906 89.632812 -98.816406 93.714844 -100.125 L 93.714844 -102.019531 L 77.683594 -102.019531 L 77.683594 -100.125 C 82.492188 -99.105469 83.074219 -94.296875 79.429688 -84.675781 L 72.433594 -65.730469 L 64.566406 -84.96875 C 60.046875 -95.898438 58.882812 -98.816406 63.253906 -100.125 L 63.253906 -102.019531 L 40.953125 -102.019531 L 40.953125 -100.125 C 44.160156 -98.816406 47.660156 -95.898438 52.03125 -84.824219 Z M 52.03125 -84.824219 "/></g></g></g><path fill="#2b2b2b" d="M 113.152344 175.546875 L 261.859375 175.546875 L 261.859375 201.417969 L 113.152344 201.417969 L 113.152344 175.546875 " fill-opacity="1" fill-rule="nonzero"/><g fill="#f4f4f4" fill-opacity="1"><g transform="translate(121.79205, 193.816334)"><g><path d="M 6.425781 -10.476562 L 8.0625 -6.5 L 6.136719 -1.78125 L 2.808594 -10.457031 C 2.285156 -11.84375 2.160156 -12.203125 2.71875 -12.367188 L 2.71875 -12.601562 L -0.0703125 -12.601562 L -0.0703125 -12.367188 C 0.324219 -12.203125 0.738281 -11.84375 1.261719 -10.457031 L 5.238281 0 L 5.742188 0 L 8.226562 -6.101562 L 10.726562 0 L 11.234375 0 L 14.996094 -10.457031 C 15.5 -11.828125 15.929688 -12.203125 16.433594 -12.367188 L 16.433594 -12.601562 L 14.402344 -12.601562 L 14.402344 -12.367188 C 15.011719 -12.242188 15.121094 -11.628906 14.6875 -10.457031 L 11.554688 -1.816406 L 9.125 -7.703125 L 10.132812 -10.457031 C 10.636719 -11.828125 11.070312 -12.203125 11.574219 -12.367188 L 11.574219 -12.601562 L 9.59375 -12.601562 L 9.59375 -12.367188 C 10.1875 -12.242188 10.261719 -11.648438 9.808594 -10.457031 L 8.945312 -8.117188 L 7.972656 -10.496094 C 7.417969 -11.84375 7.273438 -12.203125 7.8125 -12.367188 L 7.8125 -12.601562 L 5.058594 -12.601562 L 5.058594 -12.367188 C 5.453125 -12.203125 5.886719 -11.84375 6.425781 -10.476562 Z M 6.425781 -10.476562 "/></g></g></g><g fill="#f4f4f4" fill-opacity="1"><g transform="translate(140.945792, 193.816334)"><g><path d="M -0.304688 0 L 1.726562 0 L 1.726562 -0.234375 C 1.117188 -0.359375 1.042969 -0.953125 1.511719 -2.125 L 2.574219 -4.753906 L 7.648438 -4.753906 L 8.75 -2.105469 C 9.324219 -0.757812 9.46875 -0.394531 8.910156 -0.234375 L 8.910156 0 L 11.699219 0 L 11.699219 -0.234375 C 11.324219 -0.394531 10.890625 -0.757812 10.332031 -2.105469 L 5.902344 -12.746094 L 4.554688 -12.132812 L 4.714844 -11.753906 C 4.859375 -11.464844 4.878906 -11.234375 4.753906 -10.910156 L 1.207031 -2.125 C 0.648438 -0.757812 0.199219 -0.394531 -0.304688 -0.234375 Z M 2.683594 -5.023438 L 5.078125 -10.945312 L 7.542969 -5.023438 Z M 2.683594 -5.023438 "/></g></g></g><g fill="#f4f4f4" fill-opacity="1"><g transform="translate(155.311336, 193.816334)"><g><path d="M 3.402344 0 L 6.335938 0 L 6.335938 -0.234375 C 5.777344 -0.394531 5.617188 -0.808594 5.617188 -2.285156 L 5.617188 -5.707031 L 8.371094 -10.601562 C 9.089844 -11.878906 9.648438 -12.203125 10.132812 -12.367188 L 10.132812 -12.601562 L 7.992188 -12.601562 L 7.992188 -12.367188 C 8.675781 -12.242188 8.660156 -11.699219 8.046875 -10.601562 L 5.527344 -6.136719 L 3.023438 -10.601562 C 2.304688 -11.878906 2.089844 -12.203125 2.628906 -12.367188 L 2.628906 -12.601562 L -0.214844 -12.601562 L -0.214844 -12.367188 C 0.160156 -12.203125 0.683594 -11.878906 1.386719 -10.601562 L 4.105469 -5.671875 L 4.105469 -2.285156 C 4.121094 -0.808594 3.941406 -0.394531 3.402344 -0.234375 Z M 3.402344 0 "/></g></g></g><g fill="#f4f4f4" fill-opacity="1"><g transform="translate(168.038819, 193.816334)"><g><path d="M 10.421875 0.144531 L 10.65625 0.144531 L 10.65625 -10.3125 C 10.65625 -11.789062 10.820312 -12.203125 11.375 -12.367188 L 11.375 -12.601562 L 9.109375 -12.601562 L 9.109375 -12.367188 C 9.917969 -12.152344 10.351562 -11.648438 10.351562 -9.59375 L 10.351562 -2.410156 L 2.484375 -12.601562 L 0.71875 -12.601562 L 0.71875 -12.367188 C 1.441406 -12.203125 1.65625 -11.789062 1.65625 -10.3125 L 1.65625 -2.285156 C 1.65625 -0.808594 1.476562 -0.394531 0.9375 -0.234375 L 0.9375 0 L 3.1875 0 L 3.1875 -0.234375 C 2.375 -0.449219 1.945312 -0.953125 1.945312 -3.007812 L 1.945312 -10.890625 Z M 10.421875 0.144531 "/></g></g></g><g fill="#f4f4f4" fill-opacity="1"><g transform="translate(182.962394, 193.816334)"><g><path d="M 0.917969 0 L 9.792969 0 L 9.9375 -2.394531 L 9.738281 -2.429688 C 9.089844 -0.757812 7.992188 -0.269531 6.265625 -0.269531 L 3.925781 -0.269531 C 3.402344 -0.269531 3.113281 -0.558594 3.113281 -1.078125 L 3.113281 -6.605469 L 5.417969 -6.605469 C 7.46875 -6.605469 7.992188 -6.191406 8.207031 -5.382812 L 8.425781 -5.382812 L 8.425781 -8.101562 L 8.207031 -8.101562 C 7.992188 -7.289062 7.46875 -6.875 5.417969 -6.875 L 3.113281 -6.875 L 3.113281 -12.332031 L 5.761719 -12.332031 C 7.597656 -12.332031 8.660156 -11.789062 9.289062 -10.207031 L 9.488281 -10.261719 L 9.289062 -12.601562 L 0.917969 -12.601562 L 0.917969 -12.367188 C 1.457031 -12.203125 1.636719 -11.789062 1.636719 -10.3125 L 1.636719 -2.285156 C 1.636719 -0.808594 1.457031 -0.394531 0.917969 -0.234375 Z M 0.917969 0 "/></g></g></g><g fill="#f4f4f4" fill-opacity="1"><g transform="translate(196.391906, 193.816334)"><g/></g></g><g fill="#f4f4f4" fill-opacity="1"><g transform="translate(202.99914, 193.816334)"><g><path d="M 0.898438 0 L 3.167969 0 L 3.167969 -0.234375 C 2.375 -0.449219 1.945312 -0.953125 1.945312 -3.007812 L 1.945312 -11 L 6.550781 -3.421875 L 6.894531 -3.421875 L 11.464844 -11.140625 L 11.464844 -2.285156 C 11.464844 -0.808594 11.285156 -0.394531 10.746094 -0.234375 L 10.746094 0 L 13.664062 0 L 13.664062 -0.234375 C 13.105469 -0.394531 12.941406 -0.808594 12.941406 -2.285156 L 12.941406 -9.59375 C 12.941406 -11.648438 13.320312 -12.152344 14.039062 -12.367188 L 14.039062 -12.601562 L 12.007812 -12.601562 L 7.398438 -4.84375 L 2.699219 -12.601562 L 0.523438 -12.601562 L 0.523438 -12.367188 C 1.242188 -12.152344 1.621094 -11.648438 1.621094 -9.59375 L 1.621094 -2.285156 C 1.621094 -0.808594 1.457031 -0.394531 0.898438 -0.234375 Z M 0.898438 0 "/></g></g></g><g fill="#f4f4f4" fill-opacity="1"><g transform="translate(220.784835, 193.816334)"><g><path d="M 0.917969 0 L 3.835938 0 L 3.835938 -0.234375 C 3.277344 -0.394531 3.113281 -0.808594 3.113281 -2.285156 L 3.113281 -10.3125 C 3.113281 -11.789062 3.277344 -12.203125 3.835938 -12.367188 L 3.835938 -12.601562 L 0.917969 -12.601562 L 0.917969 -12.367188 C 1.457031 -12.203125 1.636719 -11.789062 1.636719 -10.3125 L 1.636719 -2.285156 C 1.636719 -0.808594 1.457031 -0.394531 0.917969 -0.234375 Z M 0.917969 0 "/></g></g></g><g fill="#f4f4f4" fill-opacity="1"><g transform="translate(228.364115, 193.816334)"><g><path d="M 0.917969 0 L 3.835938 0 L 3.835938 -0.234375 C 3.277344 -0.394531 3.113281 -0.808594 3.113281 -2.285156 L 3.113281 -5.382812 L 4.445312 -6.75 L 4.804688 -6.75 C 6.625 -6.804688 6.894531 -5.707031 8.082031 -2.789062 C 8.945312 -0.683594 9.269531 0.0898438 10.585938 0.0898438 C 10.960938 0.0898438 11.359375 0.0546875 11.664062 -0.0351562 L 11.664062 -0.269531 C 11.554688 -0.253906 11.464844 -0.253906 11.359375 -0.253906 C 10.78125 -0.253906 10.386719 -0.882812 9.46875 -3.1875 C 8.246094 -6.265625 7.832031 -7.234375 5.148438 -7.054688 L 4.734375 -7.039062 L 8.570312 -10.960938 C 9.59375 -12.023438 10.351562 -12.203125 10.925781 -12.367188 L 10.925781 -12.601562 L 8.425781 -12.601562 L 8.425781 -12.4375 C 9.125 -12.332031 8.964844 -11.738281 7.832031 -10.566406 L 3.113281 -5.742188 L 3.113281 -10.3125 C 3.113281 -11.789062 3.277344 -12.203125 3.835938 -12.367188 L 3.835938 -12.601562 L 0.917969 -12.601562 L 0.917969 -12.367188 C 1.457031 -12.203125 1.636719 -11.789062 1.636719 -10.3125 L 1.636719 -2.285156 C 1.636719 -0.808594 1.457031 -0.394531 0.917969 -0.234375 Z M 0.917969 0 "/></g></g></g><g fill="#f4f4f4" fill-opacity="1"><g transform="translate(242.711666, 193.816334)"><g><path d="M 0.917969 0 L 9.792969 0 L 9.9375 -2.394531 L 9.738281 -2.429688 C 9.089844 -0.757812 7.992188 -0.269531 6.265625 -0.269531 L 3.925781 -0.269531 C 3.402344 -0.269531 3.113281 -0.558594 3.113281 -1.078125 L 3.113281 -6.605469 L 5.417969 -6.605469 C 7.46875 -6.605469 7.992188 -6.191406 8.207031 -5.382812 L 8.425781 -5.382812 L 8.425781 -8.101562 L 8.207031 -8.101562 C 7.992188 -7.289062 7.46875 -6.875 5.417969 -6.875 L 3.113281 -6.875 L 3.113281 -12.332031 L 5.761719 -12.332031 C 7.597656 -12.332031 8.660156 -11.789062 9.289062 -10.207031 L 9.488281 -10.261719 L 9.289062 -12.601562 L 0.917969 -12.601562 L 0.917969 -12.367188 C 1.457031 -12.203125 1.636719 -11.789062 1.636719 -10.3125 L 1.636719 -2.285156 C 1.636719 -0.808594 1.457031 -0.394531 0.917969 -0.234375 Z M 0.917969 0 "/></g></g></g></svg>