<svg xmlns="http://www.w3.org/2000/svg" xmlns:xlink="http://www.w3.org/1999/xlink" width="500" zoomAndPan="magnify" viewBox="0 0 375 374.999991" height="500" preserveAspectRatio="xMidYMid meet" version="1.0"><defs><g/></defs><g fill="#f4f4f4" fill-opacity="1"><g transform="translate(138.799424, 251.389663)"><g><path d="M 8.097656 0 L 28.511719 0 L 28.511719 -2.105469 C 21.382812 -4.050781 17.496094 -8.585938 17.496094 -27.050781 L 17.496094 -98.976562 L 58.964844 -30.777344 L 62.042969 -30.777344 L 103.1875 -100.269531 L 103.1875 -20.574219 C 103.1875 -7.289062 101.566406 -3.5625 96.707031 -2.105469 L 96.707031 0 L 122.949219 0 L 122.949219 -2.105469 C 117.929688 -3.5625 116.46875 -7.289062 116.46875 -20.574219 L 116.46875 -86.339844 C 116.46875 -104.808594 119.871094 -109.34375 126.351562 -111.285156 L 126.351562 -113.390625 L 108.046875 -113.390625 L 66.578125 -43.574219 L 24.296875 -113.390625 L 4.699219 -113.390625 L 4.699219 -111.285156 C 11.175781 -109.34375 14.578125 -104.808594 14.578125 -86.339844 L 14.578125 -20.574219 C 14.578125 -7.289062 13.121094 -3.5625 8.097656 -2.105469 Z M 8.097656 0 "/></g></g></g><g fill="#f4f4f4" fill-opacity="1"><g transform="translate(83.92264, 233.591398)"><g><path d="M 63.363281 -103.296875 L 79.515625 -64.074219 L 60.523438 -17.570312 L 27.6875 -103.121094 C 22.539062 -116.785156 21.296875 -120.335938 26.800781 -121.933594 L 26.800781 -124.242188 L -0.710938 -124.242188 L -0.710938 -121.933594 C 3.195312 -120.335938 7.277344 -116.785156 12.425781 -103.121094 L 51.648438 0 L 56.617188 0 L 81.109375 -60.167969 L 105.78125 0 L 110.75 0 L 147.847656 -103.121094 C 152.816406 -116.609375 157.074219 -120.335938 162.046875 -121.933594 L 162.046875 -124.242188 L 141.988281 -124.242188 L 141.988281 -121.933594 C 148.023438 -120.691406 149.089844 -114.65625 144.828125 -103.121094 L 113.945312 -17.925781 L 89.984375 -75.964844 L 99.925781 -103.121094 C 104.894531 -116.609375 109.152344 -120.335938 114.125 -121.933594 L 114.125 -124.242188 L 94.601562 -124.242188 L 94.601562 -121.933594 C 100.457031 -120.691406 101.167969 -114.832031 96.730469 -103.121094 L 88.210938 -80.046875 L 78.625 -103.472656 C 73.125 -116.785156 71.703125 -120.335938 77.027344 -121.933594 L 77.027344 -124.242188 L 49.875 -124.242188 L 49.875 -121.933594 C 53.777344 -120.335938 58.039062 -116.785156 63.363281 -103.296875 Z M 63.363281 -103.296875 "/></g></g></g><path fill="#2b2b2b" d="M 103.796875 199.410156 L 271.085938 199.410156 L 271.085938 228.511719 L 103.796875 228.511719 L 103.796875 199.410156 " fill-opacity="1" fill-rule="nonzero"/><g fill="#f4f4f4" fill-opacity="1"><g transform="translate(113.517309, 219.96006)"><g><path d="M 7.230469 -11.785156 L 9.070312 -7.308594 L 6.90625 -2.003906 L 3.160156 -11.765625 C 2.570312 -13.324219 2.429688 -13.730469 3.058594 -13.910156 L 3.058594 -14.175781 L -0.0820312 -14.175781 L -0.0820312 -13.910156 C 0.363281 -13.730469 0.832031 -13.324219 1.417969 -11.765625 L 5.894531 0 L 6.460938 0 L 9.253906 -6.863281 L 12.070312 0 L 12.636719 0 L 16.867188 -11.765625 C 17.433594 -13.304688 17.921875 -13.730469 18.488281 -13.910156 L 18.488281 -14.175781 L 16.199219 -14.175781 L 16.199219 -13.910156 C 16.886719 -13.769531 17.011719 -13.082031 16.523438 -11.765625 L 13 -2.046875 L 10.265625 -8.667969 L 11.402344 -11.765625 C 11.96875 -13.304688 12.453125 -13.730469 13.019531 -13.910156 L 13.019531 -14.175781 L 10.792969 -14.175781 L 10.792969 -13.910156 C 11.460938 -13.769531 11.542969 -13.101562 11.035156 -11.765625 L 10.0625 -9.132812 L 8.972656 -11.804688 C 8.34375 -13.324219 8.179688 -13.730469 8.789062 -13.910156 L 8.789062 -14.175781 L 5.691406 -14.175781 L 5.691406 -13.910156 C 6.136719 -13.730469 6.621094 -13.324219 7.230469 -11.785156 Z M 7.230469 -11.785156 "/></g></g></g><g fill="#f4f4f4" fill-opacity="1"><g transform="translate(135.064356, 219.96006)"><g><path d="M -0.34375 0 L 1.945312 0 L 1.945312 -0.261719 C 1.253906 -0.40625 1.175781 -1.074219 1.699219 -2.390625 L 2.894531 -5.347656 L 8.605469 -5.347656 L 9.839844 -2.371094 C 10.488281 -0.851562 10.652344 -0.445312 10.023438 -0.261719 L 10.023438 0 L 13.164062 0 L 13.164062 -0.261719 C 12.738281 -0.445312 12.25 -0.851562 11.625 -2.371094 L 6.640625 -14.335938 L 5.125 -13.648438 L 5.304688 -13.222656 C 5.46875 -12.898438 5.488281 -12.636719 5.347656 -12.273438 L 1.355469 -2.390625 C 0.730469 -0.851562 0.222656 -0.445312 -0.34375 -0.261719 Z M 3.015625 -5.648438 L 5.710938 -12.3125 L 8.484375 -5.648438 Z M 3.015625 -5.648438 "/></g></g></g><g fill="#f4f4f4" fill-opacity="1"><g transform="translate(151.224908, 219.96006)"><g><path d="M 3.828125 0 L 7.128906 0 L 7.128906 -0.261719 C 6.5 -0.445312 6.316406 -0.910156 6.316406 -2.570312 L 6.316406 -6.417969 L 9.417969 -11.925781 C 10.226562 -13.363281 10.855469 -13.730469 11.402344 -13.910156 L 11.402344 -14.175781 L 8.992188 -14.175781 L 8.992188 -13.910156 C 9.761719 -13.769531 9.742188 -13.164062 9.050781 -11.925781 L 6.214844 -6.90625 L 3.402344 -11.925781 C 2.59375 -13.363281 2.347656 -13.730469 2.957031 -13.910156 L 2.957031 -14.175781 L -0.242188 -14.175781 L -0.242188 -13.910156 C 0.183594 -13.730469 0.769531 -13.363281 1.558594 -11.925781 L 4.617188 -6.378906 L 4.617188 -2.570312 C 4.636719 -0.910156 4.433594 -0.445312 3.828125 -0.261719 Z M 3.828125 0 "/></g></g></g><g fill="#f4f4f4" fill-opacity="1"><g transform="translate(165.542719, 219.96006)"><g><path d="M 11.726562 0.160156 L 11.988281 0.160156 L 11.988281 -11.601562 C 11.988281 -13.265625 12.171875 -13.730469 12.796875 -13.910156 L 12.796875 -14.175781 L 10.246094 -14.175781 L 10.246094 -13.910156 C 11.15625 -13.667969 11.644531 -13.101562 11.644531 -10.792969 L 11.644531 -2.714844 L 2.792969 -14.175781 L 0.808594 -14.175781 L 0.808594 -13.910156 C 1.621094 -13.730469 1.863281 -13.265625 1.863281 -11.601562 L 1.863281 -2.570312 C 1.863281 -0.910156 1.660156 -0.445312 1.054688 -0.261719 L 1.054688 0 L 3.585938 0 L 3.585938 -0.261719 C 2.671875 -0.507812 2.1875 -1.074219 2.1875 -3.382812 L 2.1875 -12.25 Z M 11.726562 0.160156 "/></g></g></g><g fill="#f4f4f4" fill-opacity="1"><g transform="translate(182.331029, 219.96006)"><g><path d="M 1.03125 0 L 11.015625 0 L 11.179688 -2.691406 L 10.957031 -2.734375 C 10.226562 -0.851562 8.992188 -0.304688 7.046875 -0.304688 L 4.414062 -0.304688 C 3.828125 -0.304688 3.503906 -0.628906 3.503906 -1.214844 L 3.503906 -7.433594 L 6.09375 -7.433594 C 8.402344 -7.433594 8.992188 -6.964844 9.234375 -6.054688 L 9.476562 -6.054688 L 9.476562 -9.113281 L 9.234375 -9.113281 C 8.992188 -8.203125 8.402344 -7.734375 6.09375 -7.734375 L 3.503906 -7.734375 L 3.503906 -13.871094 L 6.480469 -13.871094 C 8.546875 -13.871094 9.742188 -13.265625 10.449219 -11.480469 L 10.671875 -11.542969 L 10.449219 -14.175781 L 1.03125 -14.175781 L 1.03125 -13.910156 C 1.640625 -13.730469 1.84375 -13.265625 1.84375 -11.601562 L 1.84375 -2.570312 C 1.84375 -0.910156 1.640625 -0.445312 1.03125 -0.261719 Z M 1.03125 0 "/></g></g></g><g fill="#f4f4f4" fill-opacity="1"><g transform="translate(197.438591, 219.96006)"><g/></g></g><g fill="#f4f4f4" fill-opacity="1"><g transform="translate(204.871414, 219.96006)"><g><path d="M 1.011719 0 L 3.5625 0 L 3.5625 -0.261719 C 2.671875 -0.507812 2.1875 -1.074219 2.1875 -3.382812 L 2.1875 -12.371094 L 7.371094 -3.847656 L 7.753906 -3.847656 L 12.898438 -12.535156 L 12.898438 -2.570312 C 12.898438 -0.910156 12.695312 -0.445312 12.089844 -0.261719 L 12.089844 0 L 15.371094 0 L 15.371094 -0.261719 C 14.742188 -0.445312 14.558594 -0.910156 14.558594 -2.570312 L 14.558594 -10.792969 C 14.558594 -13.101562 14.984375 -13.667969 15.796875 -13.910156 L 15.796875 -14.175781 L 13.507812 -14.175781 L 8.324219 -5.445312 L 3.039062 -14.175781 L 0.585938 -14.175781 L 0.585938 -13.910156 C 1.398438 -13.667969 1.824219 -13.101562 1.824219 -10.792969 L 1.824219 -2.570312 C 1.824219 -0.910156 1.640625 -0.445312 1.011719 -0.261719 Z M 1.011719 0 "/></g></g></g><g fill="#f4f4f4" fill-opacity="1"><g transform="translate(224.879473, 219.96006)"><g><path d="M 1.03125 0 L 4.3125 0 L 4.3125 -0.261719 C 3.683594 -0.445312 3.503906 -0.910156 3.503906 -2.570312 L 3.503906 -11.601562 C 3.503906 -13.265625 3.683594 -13.730469 4.3125 -13.910156 L 4.3125 -14.175781 L 1.03125 -14.175781 L 1.03125 -13.910156 C 1.640625 -13.730469 1.84375 -13.265625 1.84375 -11.601562 L 1.84375 -2.570312 C 1.84375 -0.910156 1.640625 -0.445312 1.03125 -0.261719 Z M 1.03125 0 "/></g></g></g><g fill="#f4f4f4" fill-opacity="1"><g transform="translate(233.405801, 219.96006)"><g><path d="M 1.03125 0 L 4.3125 0 L 4.3125 -0.261719 C 3.683594 -0.445312 3.503906 -0.910156 3.503906 -2.570312 L 3.503906 -6.054688 L 5 -7.59375 L 5.40625 -7.59375 C 7.453125 -7.65625 7.753906 -6.417969 9.09375 -3.140625 C 10.0625 -0.769531 10.429688 0.101562 11.90625 0.101562 C 12.332031 0.101562 12.777344 0.0625 13.121094 -0.0390625 L 13.121094 -0.304688 C 13 -0.285156 12.898438 -0.285156 12.777344 -0.285156 C 12.128906 -0.285156 11.683594 -0.992188 10.652344 -3.585938 C 9.273438 -7.046875 8.808594 -8.140625 5.792969 -7.9375 L 5.324219 -7.917969 L 9.640625 -12.332031 C 10.792969 -13.527344 11.644531 -13.730469 12.292969 -13.910156 L 12.292969 -14.175781 L 9.476562 -14.175781 L 9.476562 -13.992188 C 10.265625 -13.871094 10.085938 -13.203125 8.808594 -11.886719 L 3.503906 -6.460938 L 3.503906 -11.601562 C 3.503906 -13.265625 3.683594 -13.730469 4.3125 -13.910156 L 4.3125 -14.175781 L 1.03125 -14.175781 L 1.03125 -13.910156 C 1.640625 -13.730469 1.84375 -13.265625 1.84375 -11.601562 L 1.84375 -2.570312 C 1.84375 -0.910156 1.640625 -0.445312 1.03125 -0.261719 Z M 1.03125 0 "/></g></g></g><g fill="#f4f4f4" fill-opacity="1"><g transform="translate(249.546112, 219.96006)"><g><path d="M 1.03125 0 L 11.015625 0 L 11.179688 -2.691406 L 10.957031 -2.734375 C 10.226562 -0.851562 8.992188 -0.304688 7.046875 -0.304688 L 4.414062 -0.304688 C 3.828125 -0.304688 3.503906 -0.628906 3.503906 -1.214844 L 3.503906 -7.433594 L 6.09375 -7.433594 C 8.402344 -7.433594 8.992188 -6.964844 9.234375 -6.054688 L 9.476562 -6.054688 L 9.476562 -9.113281 L 9.234375 -9.113281 C 8.992188 -8.203125 8.402344 -7.734375 6.09375 -7.734375 L 3.503906 -7.734375 L 3.503906 -13.871094 L 6.480469 -13.871094 C 8.546875 -13.871094 9.742188 -13.265625 10.449219 -11.480469 L 10.671875 -11.542969 L 10.449219 -14.175781 L 1.03125 -14.175781 L 1.03125 -13.910156 C 1.640625 -13.730469 1.84375 -13.265625 1.84375 -11.601562 L 1.84375 -2.570312 C 1.84375 -0.910156 1.640625 -0.445312 1.03125 -0.261719 Z M 1.03125 0 "/></g></g></g></svg>