<svg xmlns="http://www.w3.org/2000/svg" xmlns:xlink="http://www.w3.org/1999/xlink" width="200" zoomAndPan="magnify" viewBox="0 0 150 89.999999" height="120" preserveAspectRatio="xMidYMid meet" version="1.0"><defs><g/></defs><g fill="#ffffff" fill-opacity="1"><g transform="translate(64.661919, 67.60425)"><g><path d="M 2.355469 0 L 8.292969 0 L 8.292969 -0.613281 C 6.21875 -1.179688 5.089844 -2.496094 5.089844 -7.871094 L 5.089844 -28.792969 L 17.152344 -8.953125 L 18.046875 -8.953125 L 30.019531 -29.167969 L 30.019531 -5.984375 C 30.019531 -2.121094 29.546875 -1.035156 28.132812 -0.613281 L 28.132812 0 L 35.765625 0 L 35.765625 -0.613281 C 34.304688 -1.035156 33.882812 -2.121094 33.882812 -5.984375 L 33.882812 -25.117188 C 33.882812 -30.488281 34.871094 -31.808594 36.757812 -32.375 L 36.757812 -32.988281 L 31.433594 -32.988281 L 19.367188 -12.675781 L 7.070312 -32.988281 L 1.367188 -32.988281 L 1.367188 -32.375 C 3.25 -31.808594 4.242188 -30.488281 4.242188 -25.117188 L 4.242188 -5.984375 C 4.242188 -2.121094 3.816406 -1.035156 2.355469 -0.613281 Z M 2.355469 0 "/></g></g></g><g fill="#ffffff" fill-opacity="1"><g transform="translate(53.212978, 57.00281)"><g><path d="M 14.144531 -23.058594 L 17.75 -14.304688 L 13.511719 -3.921875 L 6.179688 -23.019531 C 5.03125 -26.070312 4.753906 -26.863281 5.984375 -27.21875 L 5.984375 -27.734375 L -0.160156 -27.734375 L -0.160156 -27.21875 C 0.714844 -26.863281 1.625 -26.070312 2.773438 -23.019531 L 11.53125 0 L 12.640625 0 L 18.109375 -13.433594 L 23.613281 0 L 24.722656 0 L 33.003906 -23.019531 C 34.113281 -26.03125 35.066406 -26.863281 36.175781 -27.21875 L 36.175781 -27.734375 L 31.699219 -27.734375 L 31.699219 -27.21875 C 33.046875 -26.941406 33.28125 -25.597656 32.332031 -23.019531 L 25.4375 -4 L 20.089844 -16.957031 L 22.308594 -23.019531 C 23.417969 -26.03125 24.367188 -26.863281 25.476562 -27.21875 L 25.476562 -27.734375 L 21.117188 -27.734375 L 21.117188 -27.21875 C 22.425781 -26.941406 22.585938 -25.636719 21.59375 -23.019531 L 19.691406 -17.871094 L 17.554688 -23.101562 C 16.324219 -26.070312 16.007812 -26.863281 17.195312 -27.21875 L 17.195312 -27.734375 L 11.132812 -27.734375 L 11.132812 -27.21875 C 12.003906 -26.863281 12.957031 -26.070312 14.144531 -23.058594 Z M 14.144531 -23.058594 "/></g></g></g><path fill="#f4f4f4" d="M 54.910156 47.820312 L 95.0625 47.820312 L 95.0625 54.808594 L 54.910156 54.808594 L 54.910156 47.820312 " fill-opacity="1" fill-rule="nonzero"/><g fill="#ffffff" fill-opacity="1"><g transform="translate(57.244151, 52.754493)"><g><path d="M 1.734375 -2.828125 L 2.175781 -1.753906 L 1.65625 -0.480469 L 0.757812 -2.824219 C 0.617188 -3.199219 0.582031 -3.296875 0.734375 -3.339844 L 0.734375 -3.402344 L -0.0195312 -3.402344 L -0.0195312 -3.339844 C 0.0859375 -3.296875 0.199219 -3.199219 0.339844 -2.824219 L 1.414062 0 L 1.550781 0 L 2.222656 -1.648438 L 2.898438 0 L 3.03125 0 L 4.046875 -2.824219 C 4.183594 -3.191406 4.300781 -3.296875 4.4375 -3.339844 L 4.4375 -3.402344 L 3.886719 -3.402344 L 3.886719 -3.339844 C 4.054688 -3.304688 4.082031 -3.140625 3.964844 -2.824219 L 3.121094 -0.492188 L 2.464844 -2.082031 L 2.734375 -2.824219 C 2.871094 -3.191406 2.988281 -3.296875 3.125 -3.339844 L 3.125 -3.402344 L 2.589844 -3.402344 L 2.589844 -3.339844 C 2.75 -3.304688 2.769531 -3.144531 2.648438 -2.824219 L 2.414062 -2.191406 L 2.152344 -2.832031 C 2.003906 -3.199219 1.964844 -3.296875 2.109375 -3.339844 L 2.109375 -3.402344 L 1.367188 -3.402344 L 1.367188 -3.339844 C 1.472656 -3.296875 1.589844 -3.199219 1.734375 -2.828125 Z M 1.734375 -2.828125 "/></g></g></g><g fill="#ffffff" fill-opacity="1"><g transform="translate(62.415442, 52.754493)"><g><path d="M -0.0820312 0 L 0.464844 0 L 0.464844 -0.0625 C 0.300781 -0.0976562 0.28125 -0.257812 0.410156 -0.574219 L 0.695312 -1.28125 L 2.066406 -1.28125 L 2.363281 -0.570312 C 2.515625 -0.203125 2.554688 -0.105469 2.40625 -0.0625 L 2.40625 0 L 3.160156 0 L 3.160156 -0.0625 C 3.058594 -0.105469 2.941406 -0.203125 2.789062 -0.570312 L 1.59375 -3.441406 L 1.230469 -3.277344 L 1.273438 -3.171875 C 1.3125 -3.097656 1.316406 -3.03125 1.28125 -2.945312 L 0.324219 -0.574219 C 0.175781 -0.203125 0.0546875 -0.105469 -0.0820312 -0.0625 Z M 0.722656 -1.355469 L 1.371094 -2.953125 L 2.035156 -1.355469 Z M 0.722656 -1.355469 "/></g></g></g><g fill="#ffffff" fill-opacity="1"><g transform="translate(66.293974, 52.754493)"><g><path d="M 0.917969 0 L 1.710938 0 L 1.710938 -0.0625 C 1.558594 -0.105469 1.515625 -0.21875 1.515625 -0.617188 L 1.515625 -1.539062 L 2.261719 -2.863281 C 2.453125 -3.207031 2.605469 -3.296875 2.734375 -3.339844 L 2.734375 -3.402344 L 2.15625 -3.402344 L 2.15625 -3.339844 C 2.34375 -3.304688 2.335938 -3.160156 2.171875 -2.863281 L 1.492188 -1.65625 L 0.816406 -2.863281 C 0.621094 -3.207031 0.5625 -3.296875 0.710938 -3.339844 L 0.710938 -3.402344 L -0.0585938 -3.402344 L -0.0585938 -3.339844 C 0.0429688 -3.296875 0.183594 -3.207031 0.375 -2.863281 L 1.109375 -1.53125 L 1.109375 -0.617188 C 1.113281 -0.21875 1.0625 -0.105469 0.917969 -0.0625 Z M 0.917969 0 "/></g></g></g><g fill="#ffffff" fill-opacity="1"><g transform="translate(69.730249, 52.754493)"><g><path d="M 2.8125 0.0390625 L 2.878906 0.0390625 L 2.878906 -2.785156 C 2.878906 -3.183594 2.921875 -3.296875 3.070312 -3.339844 L 3.070312 -3.402344 L 2.460938 -3.402344 L 2.460938 -3.339844 C 2.679688 -3.28125 2.792969 -3.144531 2.792969 -2.589844 L 2.792969 -0.652344 L 0.671875 -3.402344 L 0.195312 -3.402344 L 0.195312 -3.339844 C 0.390625 -3.296875 0.445312 -3.183594 0.445312 -2.785156 L 0.445312 -0.617188 C 0.445312 -0.21875 0.398438 -0.105469 0.253906 -0.0625 L 0.253906 0 L 0.859375 0 L 0.859375 -0.0625 C 0.640625 -0.121094 0.523438 -0.257812 0.523438 -0.8125 L 0.523438 -2.941406 Z M 2.8125 0.0390625 "/></g></g></g><g fill="#ffffff" fill-opacity="1"><g transform="translate(73.759444, 52.754493)"><g><path d="M 0.246094 0 L 2.644531 0 L 2.683594 -0.644531 L 2.628906 -0.65625 C 2.453125 -0.203125 2.15625 -0.0742188 1.691406 -0.0742188 L 1.058594 -0.0742188 C 0.917969 -0.0742188 0.839844 -0.152344 0.839844 -0.292969 L 0.839844 -1.785156 L 1.460938 -1.785156 C 2.015625 -1.785156 2.15625 -1.671875 2.214844 -1.453125 L 2.273438 -1.453125 L 2.273438 -2.1875 L 2.214844 -2.1875 C 2.15625 -1.96875 2.015625 -1.855469 1.460938 -1.855469 L 0.839844 -1.855469 L 0.839844 -3.328125 L 1.554688 -3.328125 C 2.050781 -3.328125 2.335938 -3.183594 2.507812 -2.753906 L 2.5625 -2.769531 L 2.507812 -3.402344 L 0.246094 -3.402344 L 0.246094 -3.339844 C 0.394531 -3.296875 0.441406 -3.183594 0.441406 -2.785156 L 0.441406 -0.617188 C 0.441406 -0.21875 0.394531 -0.105469 0.246094 -0.0625 Z M 0.246094 0 "/></g></g></g><g fill="#ffffff" fill-opacity="1"><g transform="translate(77.385258, 52.754493)"><g/></g></g><g fill="#ffffff" fill-opacity="1"><g transform="translate(79.169136, 52.754493)"><g><path d="M 0.242188 0 L 0.855469 0 L 0.855469 -0.0625 C 0.640625 -0.121094 0.523438 -0.257812 0.523438 -0.8125 L 0.523438 -2.96875 L 1.769531 -0.921875 L 1.863281 -0.921875 L 3.097656 -3.007812 L 3.097656 -0.617188 C 3.097656 -0.21875 3.046875 -0.105469 2.902344 -0.0625 L 2.902344 0 L 3.6875 0 L 3.6875 -0.0625 C 3.539062 -0.105469 3.496094 -0.21875 3.496094 -0.617188 L 3.496094 -2.589844 C 3.496094 -3.144531 3.597656 -3.28125 3.789062 -3.339844 L 3.789062 -3.402344 L 3.242188 -3.402344 L 1.996094 -1.308594 L 0.730469 -3.402344 L 0.140625 -3.402344 L 0.140625 -3.339844 C 0.335938 -3.28125 0.4375 -3.144531 0.4375 -2.589844 L 0.4375 -0.617188 C 0.4375 -0.21875 0.394531 -0.105469 0.242188 -0.0625 Z M 0.242188 0 "/></g></g></g><g fill="#ffffff" fill-opacity="1"><g transform="translate(83.97107, 52.754493)"><g><path d="M 0.246094 0 L 1.035156 0 L 1.035156 -0.0625 C 0.882812 -0.105469 0.839844 -0.21875 0.839844 -0.617188 L 0.839844 -2.785156 C 0.839844 -3.183594 0.882812 -3.296875 1.035156 -3.339844 L 1.035156 -3.402344 L 0.246094 -3.402344 L 0.246094 -3.339844 C 0.394531 -3.296875 0.441406 -3.183594 0.441406 -2.785156 L 0.441406 -0.617188 C 0.441406 -0.21875 0.394531 -0.105469 0.246094 -0.0625 Z M 0.246094 0 "/></g></g></g><g fill="#ffffff" fill-opacity="1"><g transform="translate(86.017389, 52.754493)"><g><path d="M 0.246094 0 L 1.035156 0 L 1.035156 -0.0625 C 0.882812 -0.105469 0.839844 -0.21875 0.839844 -0.617188 L 0.839844 -1.453125 L 1.199219 -1.824219 L 1.296875 -1.824219 C 1.789062 -1.835938 1.863281 -1.539062 2.183594 -0.753906 C 2.414062 -0.183594 2.503906 0.0234375 2.859375 0.0234375 C 2.960938 0.0234375 3.066406 0.015625 3.148438 -0.0078125 L 3.148438 -0.0742188 C 3.121094 -0.0664062 3.097656 -0.0664062 3.066406 -0.0664062 C 2.910156 -0.0664062 2.804688 -0.238281 2.554688 -0.859375 C 2.226562 -1.691406 2.113281 -1.953125 1.390625 -1.90625 L 1.277344 -1.898438 L 2.3125 -2.960938 C 2.589844 -3.246094 2.792969 -3.296875 2.949219 -3.339844 L 2.949219 -3.402344 L 2.273438 -3.402344 L 2.273438 -3.359375 C 2.464844 -3.328125 2.421875 -3.167969 2.113281 -2.851562 L 0.839844 -1.550781 L 0.839844 -2.785156 C 0.839844 -3.183594 0.882812 -3.296875 1.035156 -3.339844 L 1.035156 -3.402344 L 0.246094 -3.402344 L 0.246094 -3.339844 C 0.394531 -3.296875 0.441406 -3.183594 0.441406 -2.785156 L 0.441406 -0.617188 C 0.441406 -0.21875 0.394531 -0.105469 0.246094 -0.0625 Z M 0.246094 0 "/></g></g></g><g fill="#ffffff" fill-opacity="1"><g transform="translate(89.891064, 52.754493)"><g><path d="M 0.246094 0 L 2.644531 0 L 2.683594 -0.644531 L 2.628906 -0.65625 C 2.453125 -0.203125 2.15625 -0.0742188 1.691406 -0.0742188 L 1.058594 -0.0742188 C 0.917969 -0.0742188 0.839844 -0.152344 0.839844 -0.292969 L 0.839844 -1.785156 L 1.460938 -1.785156 C 2.015625 -1.785156 2.15625 -1.671875 2.214844 -1.453125 L 2.273438 -1.453125 L 2.273438 -2.1875 L 2.214844 -2.1875 C 2.15625 -1.96875 2.015625 -1.855469 1.460938 -1.855469 L 0.839844 -1.855469 L 0.839844 -3.328125 L 1.554688 -3.328125 C 2.050781 -3.328125 2.335938 -3.183594 2.507812 -2.753906 L 2.5625 -2.769531 L 2.507812 -3.402344 L 0.246094 -3.402344 L 0.246094 -3.339844 C 0.394531 -3.296875 0.441406 -3.183594 0.441406 -2.785156 L 0.441406 -0.617188 C 0.441406 -0.21875 0.394531 -0.105469 0.246094 -0.0625 Z M 0.246094 0 "/></g></g></g></svg>