<svg xmlns="http://www.w3.org/2000/svg" xmlns:xlink="http://www.w3.org/1999/xlink" width="500" zoomAndPan="magnify" viewBox="0 0 375 374.999991" height="500" preserveAspectRatio="xMidYMid meet" version="1.0"><defs><g/></defs><g fill="#f4f4f4" fill-opacity="1"><g transform="translate(144.424638, 281.684353)"><g><path d="M 9.816406 0 L 34.558594 0 L 34.558594 -2.550781 C 25.917969 -4.910156 21.207031 -10.40625 21.207031 -32.789062 L 21.207031 -119.96875 L 71.472656 -37.304688 L 75.203125 -37.304688 L 125.074219 -121.539062 L 125.074219 -24.9375 C 125.074219 -8.835938 123.113281 -4.320312 117.222656 -2.550781 L 117.222656 0 L 149.03125 0 L 149.03125 -2.550781 C 142.941406 -4.320312 141.175781 -8.835938 141.175781 -24.9375 L 141.175781 -104.65625 C 141.175781 -127.039062 145.300781 -132.535156 153.152344 -134.890625 L 153.152344 -137.445312 L 130.964844 -137.445312 L 80.699219 -52.816406 L 29.453125 -137.445312 L 5.695312 -137.445312 L 5.695312 -134.890625 C 13.546875 -132.535156 17.671875 -127.039062 17.671875 -104.65625 L 17.671875 -24.9375 C 17.671875 -8.835938 15.90625 -4.320312 9.816406 -2.550781 Z M 9.816406 0 "/></g></g></g><g fill="#f4f4f4" fill-opacity="1"><g transform="translate(64.441407, 227.623927)"><g><path d="M 70.097656 -114.277344 L 87.964844 -70.882812 L 66.957031 -19.4375 L 30.628906 -114.078125 C 24.9375 -129.199219 23.5625 -133.125 29.648438 -134.890625 L 29.648438 -137.445312 L -0.785156 -137.445312 L -0.785156 -134.890625 C 3.535156 -133.125 8.050781 -129.199219 13.746094 -114.078125 L 57.136719 0 L 62.636719 0 L 89.730469 -66.5625 L 117.023438 0 L 122.523438 0 L 163.558594 -114.078125 C 169.058594 -129 173.769531 -133.125 179.265625 -134.890625 L 179.265625 -137.445312 L 157.078125 -137.445312 L 157.078125 -134.890625 C 163.757812 -133.519531 164.933594 -126.84375 160.222656 -114.078125 L 126.058594 -19.832031 L 99.550781 -84.039062 L 110.546875 -114.078125 C 116.042969 -129 120.753906 -133.125 126.253906 -134.890625 L 126.253906 -137.445312 L 104.65625 -137.445312 L 104.65625 -134.890625 C 111.132812 -133.519531 111.917969 -127.039062 107.011719 -114.078125 L 97.585938 -88.554688 L 86.984375 -114.472656 C 80.894531 -129.199219 79.324219 -133.125 85.214844 -134.890625 L 85.214844 -137.445312 L 55.175781 -137.445312 L 55.175781 -134.890625 C 59.492188 -133.125 64.207031 -129.199219 70.097656 -114.277344 Z M 70.097656 -114.277344 "/></g></g></g><path fill="#2b2b2b" d="M 103.796875 199.410156 L 271.085938 199.410156 L 271.085938 228.511719 L 103.796875 228.511719 L 103.796875 199.410156 " fill-opacity="1" fill-rule="nonzero"/><g fill="#f4f4f4" fill-opacity="1"><g transform="translate(113.517309, 219.96006)"><g><path d="M 7.230469 -11.785156 L 9.070312 -7.308594 L 6.90625 -2.003906 L 3.160156 -11.765625 C 2.570312 -13.324219 2.429688 -13.730469 3.058594 -13.910156 L 3.058594 -14.175781 L -0.0820312 -14.175781 L -0.0820312 -13.910156 C 0.363281 -13.730469 0.832031 -13.324219 1.417969 -11.765625 L 5.894531 0 L 6.460938 0 L 9.253906 -6.863281 L 12.070312 0 L 12.636719 0 L 16.867188 -11.765625 C 17.433594 -13.304688 17.921875 -13.730469 18.488281 -13.910156 L 18.488281 -14.175781 L 16.199219 -14.175781 L 16.199219 -13.910156 C 16.886719 -13.769531 17.011719 -13.082031 16.523438 -11.765625 L 13 -2.046875 L 10.265625 -8.667969 L 11.402344 -11.765625 C 11.96875 -13.304688 12.453125 -13.730469 13.019531 -13.910156 L 13.019531 -14.175781 L 10.792969 -14.175781 L 10.792969 -13.910156 C 11.460938 -13.769531 11.542969 -13.101562 11.035156 -11.765625 L 10.0625 -9.132812 L 8.972656 -11.804688 C 8.34375 -13.324219 8.179688 -13.730469 8.789062 -13.910156 L 8.789062 -14.175781 L 5.691406 -14.175781 L 5.691406 -13.910156 C 6.136719 -13.730469 6.621094 -13.324219 7.230469 -11.785156 Z M 7.230469 -11.785156 "/></g></g></g><g fill="#f4f4f4" fill-opacity="1"><g transform="translate(135.064356, 219.96006)"><g><path d="M -0.34375 0 L 1.945312 0 L 1.945312 -0.261719 C 1.253906 -0.40625 1.175781 -1.074219 1.699219 -2.390625 L 2.894531 -5.347656 L 8.605469 -5.347656 L 9.839844 -2.371094 C 10.488281 -0.851562 10.652344 -0.445312 10.023438 -0.261719 L 10.023438 0 L 13.164062 0 L 13.164062 -0.261719 C 12.738281 -0.445312 12.25 -0.851562 11.625 -2.371094 L 6.640625 -14.335938 L 5.125 -13.648438 L 5.304688 -13.222656 C 5.46875 -12.898438 5.488281 -12.636719 5.347656 -12.273438 L 1.355469 -2.390625 C 0.730469 -0.851562 0.222656 -0.445312 -0.34375 -0.261719 Z M 3.015625 -5.648438 L 5.710938 -12.3125 L 8.484375 -5.648438 Z M 3.015625 -5.648438 "/></g></g></g><g fill="#f4f4f4" fill-opacity="1"><g transform="translate(151.224908, 219.96006)"><g><path d="M 3.828125 0 L 7.128906 0 L 7.128906 -0.261719 C 6.5 -0.445312 6.316406 -0.910156 6.316406 -2.570312 L 6.316406 -6.417969 L 9.417969 -11.925781 C 10.226562 -13.363281 10.855469 -13.730469 11.402344 -13.910156 L 11.402344 -14.175781 L 8.992188 -14.175781 L 8.992188 -13.910156 C 9.761719 -13.769531 9.742188 -13.164062 9.050781 -11.925781 L 6.214844 -6.90625 L 3.402344 -11.925781 C 2.59375 -13.363281 2.347656 -13.730469 2.957031 -13.910156 L 2.957031 -14.175781 L -0.242188 -14.175781 L -0.242188 -13.910156 C 0.183594 -13.730469 0.769531 -13.363281 1.558594 -11.925781 L 4.617188 -6.378906 L 4.617188 -2.570312 C 4.636719 -0.910156 4.433594 -0.445312 3.828125 -0.261719 Z M 3.828125 0 "/></g></g></g><g fill="#f4f4f4" fill-opacity="1"><g transform="translate(165.542719, 219.96006)"><g><path d="M 11.726562 0.160156 L 11.988281 0.160156 L 11.988281 -11.601562 C 11.988281 -13.265625 12.171875 -13.730469 12.796875 -13.910156 L 12.796875 -14.175781 L 10.246094 -14.175781 L 10.246094 -13.910156 C 11.15625 -13.667969 11.644531 -13.101562 11.644531 -10.792969 L 11.644531 -2.714844 L 2.792969 -14.175781 L 0.808594 -14.175781 L 0.808594 -13.910156 C 1.621094 -13.730469 1.863281 -13.265625 1.863281 -11.601562 L 1.863281 -2.570312 C 1.863281 -0.910156 1.660156 -0.445312 1.054688 -0.261719 L 1.054688 0 L 3.585938 0 L 3.585938 -0.261719 C 2.671875 -0.507812 2.1875 -1.074219 2.1875 -3.382812 L 2.1875 -12.25 Z M 11.726562 0.160156 "/></g></g></g><g fill="#f4f4f4" fill-opacity="1"><g transform="translate(182.331029, 219.96006)"><g><path d="M 1.03125 0 L 11.015625 0 L 11.179688 -2.691406 L 10.957031 -2.734375 C 10.226562 -0.851562 8.992188 -0.304688 7.046875 -0.304688 L 4.414062 -0.304688 C 3.828125 -0.304688 3.503906 -0.628906 3.503906 -1.214844 L 3.503906 -7.433594 L 6.09375 -7.433594 C 8.402344 -7.433594 8.992188 -6.964844 9.234375 -6.054688 L 9.476562 -6.054688 L 9.476562 -9.113281 L 9.234375 -9.113281 C 8.992188 -8.203125 8.402344 -7.734375 6.09375 -7.734375 L 3.503906 -7.734375 L 3.503906 -13.871094 L 6.480469 -13.871094 C 8.546875 -13.871094 9.742188 -13.265625 10.449219 -11.480469 L 10.671875 -11.542969 L 10.449219 -14.175781 L 1.03125 -14.175781 L 1.03125 -13.910156 C 1.640625 -13.730469 1.84375 -13.265625 1.84375 -11.601562 L 1.84375 -2.570312 C 1.84375 -0.910156 1.640625 -0.445312 1.03125 -0.261719 Z M 1.03125 0 "/></g></g></g><g fill="#f4f4f4" fill-opacity="1"><g transform="translate(197.438591, 219.96006)"><g/></g></g><g fill="#f4f4f4" fill-opacity="1"><g transform="translate(204.871414, 219.96006)"><g><path d="M 1.011719 0 L 3.5625 0 L 3.5625 -0.261719 C 2.671875 -0.507812 2.1875 -1.074219 2.1875 -3.382812 L 2.1875 -12.371094 L 7.371094 -3.847656 L 7.753906 -3.847656 L 12.898438 -12.535156 L 12.898438 -2.570312 C 12.898438 -0.910156 12.695312 -0.445312 12.089844 -0.261719 L 12.089844 0 L 15.371094 0 L 15.371094 -0.261719 C 14.742188 -0.445312 14.558594 -0.910156 14.558594 -2.570312 L 14.558594 -10.792969 C 14.558594 -13.101562 14.984375 -13.667969 15.796875 -13.910156 L 15.796875 -14.175781 L 13.507812 -14.175781 L 8.324219 -5.445312 L 3.039062 -14.175781 L 0.585938 -14.175781 L 0.585938 -13.910156 C 1.398438 -13.667969 1.824219 -13.101562 1.824219 -10.792969 L 1.824219 -2.570312 C 1.824219 -0.910156 1.640625 -0.445312 1.011719 -0.261719 Z M 1.011719 0 "/></g></g></g><g fill="#f4f4f4" fill-opacity="1"><g transform="translate(224.879473, 219.96006)"><g><path d="M 1.03125 0 L 4.3125 0 L 4.3125 -0.261719 C 3.683594 -0.445312 3.503906 -0.910156 3.503906 -2.570312 L 3.503906 -11.601562 C 3.503906 -13.265625 3.683594 -13.730469 4.3125 -13.910156 L 4.3125 -14.175781 L 1.03125 -14.175781 L 1.03125 -13.910156 C 1.640625 -13.730469 1.84375 -13.265625 1.84375 -11.601562 L 1.84375 -2.570312 C 1.84375 -0.910156 1.640625 -0.445312 1.03125 -0.261719 Z M 1.03125 0 "/></g></g></g><g fill="#f4f4f4" fill-opacity="1"><g transform="translate(233.405801, 219.96006)"><g><path d="M 1.03125 0 L 4.3125 0 L 4.3125 -0.261719 C 3.683594 -0.445312 3.503906 -0.910156 3.503906 -2.570312 L 3.503906 -6.054688 L 5 -7.59375 L 5.40625 -7.59375 C 7.453125 -7.65625 7.753906 -6.417969 9.09375 -3.140625 C 10.0625 -0.769531 10.429688 0.101562 11.90625 0.101562 C 12.332031 0.101562 12.777344 0.0625 13.121094 -0.0390625 L 13.121094 -0.304688 C 13 -0.285156 12.898438 -0.285156 12.777344 -0.285156 C 12.128906 -0.285156 11.683594 -0.992188 10.652344 -3.585938 C 9.273438 -7.046875 8.808594 -8.140625 5.792969 -7.9375 L 5.324219 -7.917969 L 9.640625 -12.332031 C 10.792969 -13.527344 11.644531 -13.730469 12.292969 -13.910156 L 12.292969 -14.175781 L 9.476562 -14.175781 L 9.476562 -13.992188 C 10.265625 -13.871094 10.085938 -13.203125 8.808594 -11.886719 L 3.503906 -6.460938 L 3.503906 -11.601562 C 3.503906 -13.265625 3.683594 -13.730469 4.3125 -13.910156 L 4.3125 -14.175781 L 1.03125 -14.175781 L 1.03125 -13.910156 C 1.640625 -13.730469 1.84375 -13.265625 1.84375 -11.601562 L 1.84375 -2.570312 C 1.84375 -0.910156 1.640625 -0.445312 1.03125 -0.261719 Z M 1.03125 0 "/></g></g></g><g fill="#f4f4f4" fill-opacity="1"><g transform="translate(249.546112, 219.96006)"><g><path d="M 1.03125 0 L 11.015625 0 L 11.179688 -2.691406 L 10.957031 -2.734375 C 10.226562 -0.851562 8.992188 -0.304688 7.046875 -0.304688 L 4.414062 -0.304688 C 3.828125 -0.304688 3.503906 -0.628906 3.503906 -1.214844 L 3.503906 -7.433594 L 6.09375 -7.433594 C 8.402344 -7.433594 8.992188 -6.964844 9.234375 -6.054688 L 9.476562 -6.054688 L 9.476562 -9.113281 L 9.234375 -9.113281 C 8.992188 -8.203125 8.402344 -7.734375 6.09375 -7.734375 L 3.503906 -7.734375 L 3.503906 -13.871094 L 6.480469 -13.871094 C 8.546875 -13.871094 9.742188 -13.265625 10.449219 -11.480469 L 10.671875 -11.542969 L 10.449219 -14.175781 L 1.03125 -14.175781 L 1.03125 -13.910156 C 1.640625 -13.730469 1.84375 -13.265625 1.84375 -11.601562 L 1.84375 -2.570312 C 1.84375 -0.910156 1.640625 -0.445312 1.03125 -0.261719 Z M 1.03125 0 "/></g></g></g></svg>